<?xml version="1.0" standalone="no"?>
<!DOCTYPE svg PUBLIC "-//W3C//DTD SVG 20010904//EN"
 "http://www.w3.org/TR/2001/REC-SVG-20010904/DTD/svg10.dtd">
<svg version="1.0" xmlns="http://www.w3.org/2000/svg"
 width="512.000000pt" height="512.000000pt" viewBox="0 0 512.000000 512.000000"
 preserveAspectRatio="xMidYMid meet">
<metadata>
Created by potrace 1.16, written by Peter Selinger 2001-2019
</metadata>
<g transform="translate(0.000000,512.000000) scale(0.100000,-0.100000)"
fill="#000000" stroke="none">
<path d="M1625 4339 c-482 -16 -845 -44 -1015 -79 -239 -49 -431 -217 -501
-440 -44 -142 -80 -424 -100 -789 -13 -242 -7 -932 10 -1131 28 -322 61 -525
104 -640 65 -177 232 -331 415 -385 472 -140 3309 -153 3982 -19 203 41 378
178 463 364 50 111 88 328 119 695 17 202 18 1107 0 1305 -29 336 -68 562
-117 667 -72 157 -201 279 -361 339 -153 57 -510 91 -1194 114 -338 11 -1463
11 -1805 -1z m1084 -1391 c355 -204 652 -376 658 -382 10 -9 -137 -98 -620
-376 -347 -200 -647 -373 -664 -383 l-33 -19 0 766 c0 421 3 766 6 766 3 0
297 -167 653 -372z"/>
</g>
</svg>
